<?xml version="1.0" encoding="UTF-8" standalone="no"?>
<!-- Created with Inkscape (http://www.inkscape.org/) -->

<svg
   width="210mm"
   height="297mm"
   viewBox="0 0 210 297"
   version="1.1"
   id="svg5"
   xml:space="preserve"
   inkscape:version="1.2.2 (732a01da63, 2022-12-09)"
   sodipodi:docname="hole.svg"
   xmlns:inkscape="http://www.inkscape.org/namespaces/inkscape"
   xmlns:sodipodi="http://sodipodi.sourceforge.net/DTD/sodipodi-0.dtd"
   xmlns="http://www.w3.org/2000/svg"
   xmlns:svg="http://www.w3.org/2000/svg"><sodipodi:namedview
     id="namedview7"
     pagecolor="#ffffff"
     bordercolor="#000000"
     borderopacity="0.25"
     inkscape:showpageshadow="2"
     inkscape:pageopacity="0.0"
     inkscape:pagecheckerboard="0"
     inkscape:deskcolor="#d1d1d1"
     inkscape:document-units="mm"
     showgrid="false"
     inkscape:zoom="0.4204826"
     inkscape:cx="376.94782"
     inkscape:cy="589.79848"
     inkscape:window-width="1366"
     inkscape:window-height="705"
     inkscape:window-x="-8"
     inkscape:window-y="-8"
     inkscape:window-maximized="1"
     inkscape:current-layer="layer1" /><defs
     id="defs2" /><g
     inkscape:label="Layer 1"
     inkscape:groupmode="layer"
     id="layer1"><path
       style="fill:#000000;stroke-width:1"
       d="m 49.505059,194.07359 c 0,-0.12745 0.19603,-0.41584 0.43561,-0.64085 0.23959,-0.22502 0.75722,-1.01383 1.15029,-1.75292 0.87027,-1.63635 0.77019,-1.87144 -1.1655,-2.73786 -1.89953,-0.85023 -1.53209,-1.67422 0.49333,-1.10628 0.45995,0.12897 1.41377,0.35702 2.11961,0.50678 0.70583,0.14976 1.70333,0.3645 2.21666,0.47721 0.51334,0.1127 2.14084,0.35556 3.61667,0.53969 l 2.68333,0.33476 0.52468,-0.62218 c 0.28858,-0.3422 0.74347,-1.07646 1.01088,-1.63169 0.7432,-1.54312 4.24532,-15.14061 4.03676,-15.67329 -0.0614,-0.15687 -0.43044,-0.51622 -0.82004,-0.79853 -0.60798,-0.44056 -0.93993,-0.50221 -2.34229,-0.435 l -1.63392,0.0783 -0.5047,-0.91477 c -0.27759,-0.50312 -0.63696,-0.99762 -0.7986,-1.09888 -0.16165,-0.10126 -0.44829,-0.51291 -0.63698,-0.91477 -0.49091,-1.04553 -0.86218,-1.56732 -1.46079,-2.05305 -0.28875,-0.2343 -0.52816,-0.54718 -0.53201,-0.69527 -0.008,-0.32187 -3.00496,-1.75577 -3.66922,-1.75577 -0.46447,0 -0.75213,-0.72445 -0.76053,-1.9153 -0.003,-0.38038 -0.29999,-0.59778 -1.36828,-1.00054 -0.75067,-0.283 -1.47197,-0.51455 -1.60289,-0.51455 -0.13092,0 -1.10023,0.42296 -2.15403,0.93991 -1.71318,0.84042 -2.17077,0.9599 -4.32276,1.12872 -2.46522,0.19339 -3.38194,0.50583 -3.38194,1.15263 0,0.20181 -0.21,0.5532 -0.46667,0.78086 -0.25667,0.22766 -0.46667,0.53603 -0.46667,0.68527 0,0.26491 -1.51695,1.71643 -4.40191,4.21206 -0.78728,0.68104 -1.43142,1.38948 -1.43142,1.57432 0,0.18483 -0.12584,0.74771 -0.27963,1.25082 -0.22149,0.72457 -0.45193,0.98185 -1.10833,1.23742 -1.2457,0.48502 -1.60791,0.64071 -3.51204,1.50953 -4.88167,2.22742 -5.36835,2.4046 -5.36331,1.95257 0.003,-0.31623 0.82013,-0.79805 4.97871,-2.93757 l 2.53206,-1.30271 0.98016,-2.19847 c 0.53909,-1.20916 1.20125,-2.43257 1.47147,-2.7187 0.50597,-0.53574 2.40091,-4.07174 2.40091,-4.48014 0,-0.12603 0.35172,-1.44776 0.7816,-2.93717 0.42987,-1.48941 0.90434,-3.47985 1.05436,-4.42321 0.32952,-2.07208 0.95257,-9.61525 0.95924,-11.61337 0.003,-0.86994 0.20372,-1.99745 0.50915,-2.85866 0.4069,-1.14733 0.50834,-1.9784 0.525,-4.30116 0.021,-2.92149 4.6e-4,-3.01941 -1.06004,-5.04199 -0.56893,-1.08514 -0.55121,-2.40001 0.0593,-4.40371 0.44915,-1.47405 0.48368,-1.9984 0.37058,-5.62763 -0.12903,-4.1402 -0.37966,-5.46696 -1.58448,-8.38765 l -0.48834,-1.18383 0.98423,-2.24656 c 0.97772,-2.23167 0.98271,-2.25718 0.75189,-3.84741 -0.20674,-1.42432 -0.18244,-1.6826 0.2204,-2.34221 l 0.45276,-0.74135 -0.71784,-1.04248 c -0.85162,-1.23677 -0.86074,-1.32397 -0.22942,-2.19294 0.31969,-0.44004 0.41456,-0.76824 0.27461,-0.95008 -0.11759,-0.15279 -0.22585,-0.50935 -0.24057,-0.79236 -0.0198,-0.38003 0.10668,-0.51913 0.48371,-0.53206 1.69712,-0.0582 2.31328,-0.68472 2.10911,-2.14467 l -0.13769,-0.98462 1.25287,-0.40211 c 3.33888,-1.07163 4.42532,-2.05077 6.22399,-5.60926 1.39382,-2.75752 1.73507,-4.17255 1.40386,-5.821212 -0.12635,-0.628906 -0.2999,-1.812391 -0.38568,-2.629967 l -0.15596,-1.486503 -0.82644,0.0706 c -0.61531,0.05256 -0.94317,-0.05726 -1.28333,-0.429876 -1.03035,-1.128624 -2.19924,-1.627343 -4.11595,-1.756104 -1.66841,-0.112082 -1.96604,-0.06507 -3.17432,0.501457 -0.73331,0.343823 -1.49079,0.721468 -1.68329,0.839211 -0.1925,0.117742 -0.875,0.467143 -1.51667,0.77645 -0.64166,0.309307 -1.5499,0.795643 -2.0183,1.080745 -1.01875,0.620089 -4.35595,2.590574 -5.66029,3.342187 -0.51244,0.29529 -1.46189,0.86228 -2.10989,1.259982 -1.91694,1.17649 -3.54548,1.74787 -4.98173,1.74787 -0.39384,0 -0.9919,0.10279 -1.32903,0.22841 -0.93355,0.34788 -3.85076,0.56744 -3.85076,0.28982 0,-0.52877 1.18539,-0.88569 4.67978,-1.40908 1.01111,-0.15145 1.98818,-0.64868 10.60356,-5.396154 1.41166,-0.777892 3.82666,-2.108428 5.36666,-2.956743 1.54,-0.848315 3.00463,-1.737356 3.25473,-1.975645 0.7189,-0.684937 0.56273,-1.885784 -0.37804,-2.906931 -0.43225,-0.469184 -0.98373,-1.367617 -1.2255,-1.996522 -0.24177,-0.628905 -0.73845,-1.481508 -1.10372,-1.894674 -0.36527,-0.413163 -0.66413,-0.878033 -0.66413,-1.033044 0,-0.15501 -0.45173,-0.794627 -1.00386,-1.421373 -2.17499,-2.468969 -2.61455,-3.588008 -0.61972,-1.577728 l 1.04025,1.048309 2.68333,-0.157288 c 1.47583,-0.08651 2.84083,-0.241236 3.03333,-0.343839 0.19917,-0.106162 0.50083,-0.901237 0.7,-1.844984 0.47319,-2.242128 0.97474,-2.400166 0.91519,-0.288376 -0.0427,1.513717 -0.0149,1.598084 0.81717,2.481757 0.9555,1.01476 0.70991,1.332599 -0.54013,0.699036 -0.66992,-0.33954 -0.73135,-0.331532 -1.20976,0.157706 -0.2772,0.283479 -0.65874,0.869067 -0.84787,1.301308 -0.18914,0.43224 -0.57853,1.101166 -0.86533,1.486502 -0.75011,1.00786 -0.72168,1.850847 0.10503,3.113542 0.60995,0.931616 1.01614,1.228914 2.91852,2.136138 2.46277,1.174466 2.36771,1.163534 7.86943,0.904924 l 3.16937,-0.148978 0.84123,-1.829486 0.84122,-1.829487 -0.37468,-1.105633 c -0.35155,-1.037353 -1.30375,-2.026913 -1.95041,-2.026913 -0.1406,0 -0.25564,-0.102912 -0.25564,-0.228693 0,-0.429126 1.41323,-0.229827 2.61987,0.369465 1.30922,0.650237 1.14549,0.655765 5.37837,-0.181576 1.2329,-0.243887 1.46011,-0.221267 2.65562,0.264392 1.00175,0.406941 1.75023,0.531047 3.20176,0.530883 2.85158,-2.29e-4 4.27966,-0.848123 6.08313,-3.611323 1.34324,-2.058057 3.80395,-4.00393 5.06329,-4.00393 0.2608,0 0.68009,-1.129966 1.58391,-4.268627 1.82034,-6.321389 2.44115,-8.973584 2.84057,-12.135447 0.1665,-1.31801 0.35591,-2.056712 0.50431,-1.96682 0.27852,0.16871 0.0819,5.895671 -0.26953,7.851029 -0.12434,0.691796 -0.2927,2.701671 -0.37415,4.466387 l -0.14809,3.208578 2.16275,0.981741 2.16274,0.981741 1.40939,-0.372021 c 1.80015,-0.475164 6.63022,-1.823848 9.34272,-2.60873 l 2.100001,-0.607653 0.69575,-1.366999 c 0.40459,-0.794913 1.44179,-2.13266 2.47839,-3.196541 1.88838,-1.938068 3.01812,-3.545311 3.93836,-5.602972 0.54343,-1.215134 1.53017,-2.515619 1.90872,-2.515619 0.3651,0 -1.12812,3.238517 -2.27202,4.92761 -0.43956,0.649048 -0.7992,1.29464 -0.7992,1.434651 0,0.140008 -0.44625,0.757887 -0.99166,1.373068 -1.90651,2.150357 -2.275,2.749056 -2.275,3.696203 0,0.633385 0.0652,0.689182 0.80568,0.689182 1.64146,0 2.69541,-0.977486 3.02776,-2.808073 0.34582,-1.904827 1.84909,-3.37273 3.41836,-3.337948 2.27265,0.05037 7.93869,-3.232985 8.28712,-4.802223 0.22245,-1.001849 0.30303,-1.17247 0.55375,-1.17247 0.13237,0 0.24066,0.345708 0.24066,0.76824 0,0.811114 -0.95734,2.204051 -2.12911,3.097884 -0.77309,0.58972 -1.11653,1.885658 -1.36935,5.167238 -0.28095,3.646672 -0.32358,3.549921 2.30251,5.225265 1.23528,0.788052 2.35463,1.496558 2.48746,1.574455 0.13283,0.0779 1.31191,0.257076 2.62019,0.398173 4.84742,0.522789 4.97528,0.572948 8.59699,3.372652 1.78272,1.378098 4.76381,3.51232 6.62464,4.742717 4.11704,2.722216 4.19911,2.791179 4.20358,3.532159 0.007,1.180439 0.30999,1.296022 1.54877,0.591017 2.06948,-1.177769 9.89812,-6.576736 10.11659,-6.976838 0.11832,-0.216691 0.31945,-0.793235 0.44696,-1.281205 0.12751,-0.487973 0.36427,-1.399549 0.52614,-2.025726 0.21764,-0.841957 0.56525,-1.392961 1.33454,-2.115408 1.22206,-1.147648 1.86231,-1.328142 0.76108,-0.214557 -0.60038,0.607115 -0.89322,1.267182 -1.43816,3.241582 -0.8145,2.951113 -0.21761,2.233093 -7.62153,9.168275 -0.69345,0.649542 -1.24463,1.368605 -1.24463,1.623709 0,0.911311 1.35789,2.364045 2.7575,2.950104 1.94654,0.815073 2.02607,0.880611 2.02336,1.667447 -0.002,0.48841 0.0917,0.680692 0.29167,0.600604 0.16177,-0.06479 0.45163,-0.180267 0.64413,-0.256616 0.25846,-0.102507 0.35,0.019 0.35,0.464564 0,0.331856 0.1575,0.662612 0.35,0.735012 0.27293,0.102648 0.35,0.557463 0.35,2.065374 v 1.933738 l 2.85711,3.461652 c 1.57141,1.90391 3.08901,3.68894 3.37245,3.96674 0.32901,0.32247 0.57255,0.92779 0.67357,1.67422 0.18228,1.34672 0.15858,1.32473 4.68752,4.35097 l 2.84065,1.89812 3.34268,-0.38068 c 4.58206,-0.52182 4.69628,-0.54481 5.09269,-1.02501 3.79527,-4.59747 8.22,-9.83541 8.57148,-10.14681 0.56689,-0.50226 5.53071,-1.07484 5.9295,-0.68398 0.17201,0.16859 -0.1394,0.35051 -1.03856,0.6067 -0.70634,0.20125 -1.49287,0.36591 -1.74785,0.36591 -1.01579,0 -3.78124,1.61092 -3.78124,2.20262 0,0.15789 -0.23336,0.44727 -0.51858,0.64308 -0.28522,0.1958 -0.43295,0.356 -0.32827,0.356 0.10467,0 -0.23947,0.50312 -0.76475,1.11803 -0.52529,0.61492 -0.95506,1.26789 -0.95506,1.45106 0,0.18317 -0.21,0.5193 -0.46667,0.74696 -0.25667,0.22766 -0.46667,0.53702 -0.46667,0.68746 0,0.52067 -1.15967,2.40828 -1.96366,3.19628 -0.75312,0.73814 -3.25576,2.4717 -4.9644,3.4388 -0.40959,0.23184 -1.30209,1.14899 -1.98333,2.03812 -0.68123,0.88912 -1.31736,1.65089 -1.41361,1.69282 -0.0963,0.0419 -0.175,0.22202 -0.175,0.40021 0,0.17819 -0.1225,0.32398 -0.27222,0.32398 -0.14972,0 -0.20126,0.0695 -0.11453,0.15456 0.0867,0.085 -0.0527,0.37403 -0.30981,0.64229 -0.25713,0.26825 -0.56183,0.94481 -0.67712,1.50346 -0.11529,0.55866 -0.43713,2.13456 -0.7152,3.50202 -0.27807,1.36746 -0.69893,3.01404 -0.93524,3.65908 -0.69521,1.89764 -0.73997,2.37087 -0.34895,3.68917 0.20409,0.68808 0.29066,1.37857 0.19238,1.53444 -0.0983,0.15586 -0.19074,2.80719 -0.20545,5.89184 -0.0147,3.08465 -0.0752,5.76509 -0.13451,5.95652 -0.0593,0.19143 -0.39387,0.7157 -0.74355,1.16505 -0.34969,0.44934 -0.6358,0.89164 -0.6358,0.98289 0,0.0912 -0.29936,0.59609 -0.66524,1.12188 -0.89778,1.29014 -1.88276,3.78119 -2.17292,5.49541 -0.25844,1.52681 -0.0924,6.25237 0.29858,8.49605 0.94503,5.42355 2.38487,8.2575 4.70683,9.26419 0.97389,0.42223 1.07502,0.54698 1.34277,1.65657 0.15926,0.65997 0.53641,1.96822 0.83811,2.90722 l 0.54854,1.70728 5.39156,5.30185 c 4.81516,4.73505 5.37204,5.35934 5.20897,5.83959 -0.51913,1.5288 -0.72245,2.63042 -0.54655,2.96119 0.18086,0.34008 2.6076,3.82962 4.81228,6.91981 0.56912,0.7977 1.49938,1.70093 2.30114,2.23427 1.91744,1.27548 4.79245,3.45535 4.68985,3.5559 -0.10378,0.10171 -4.08596,-1.72055 -4.58725,-2.09915 -0.1925,-0.14538 -0.84383,-0.44281 -1.44741,-0.66095 -0.71285,-0.25764 -1.15385,-0.57174 -1.25848,-0.89636 -0.0886,-0.27485 -0.35599,-0.6342 -0.59425,-0.79856 -0.23826,-0.16436 -0.43319,-0.42261 -0.43319,-0.5739 0,-0.15128 -0.21,-0.4036 -0.46667,-0.5607 -0.25667,-0.1571 -0.46667,-0.43913 -0.46667,-0.62674 0,-0.18761 -0.0843,-0.3411 -0.1874,-0.3411 -0.21816,0 -2.13389,-2.59042 -2.53692,-3.43039 -0.15088,-0.31446 -0.62813,-0.97073 -1.06056,-1.45839 l -0.78622,-0.88666 -2.35644,-0.0281 c -1.4992,-0.0179 -2.30668,-0.11131 -2.21966,-0.25681 0.0885,-0.14795 0.018,-0.14668 -0.19967,0.004 -0.40523,0.27979 -0.91996,0.28438 -1.36418,0.0122 -0.22453,-0.13758 -0.2753,-0.11768 -0.16123,0.0632 0.10526,0.16692 -0.0102,0.26403 -0.31395,0.26403 -0.26424,-1e-5 -0.48043,-0.10292 -0.48043,-0.2287 0,-0.12578 -0.34125,-0.24271 -0.75834,-0.25984 -0.64207,-0.0264 -0.6689,-0.0474 -0.175,-0.1374 0.32084,-0.0584 0.65581,-0.22064 0.74438,-0.36044 0.0955,-0.15071 1.14024,-0.28654 2.56667,-0.33369 3.78823,-0.12521 4.35141,-0.51159 3.93828,-2.70195 -0.30348,-1.60906 -0.96994,-2.40995 -2.57536,-3.09483 -0.70181,-0.2994 -2.11113,-1.09067 -3.1318,-1.75837 -1.02068,-0.6677 -2.17896,-1.34663 -2.57397,-1.50872 -0.81318,-0.33368 -2.4682,-2.02596 -2.4682,-2.52375 0,-0.18055 -0.32512,-0.66908 -0.7225,-1.08563 -0.39738,-0.41656 -0.91409,-1.18433 -1.14825,-1.70616 -0.38082,-0.84868 -0.53233,-0.96546 -1.43583,-1.10674 -0.55555,-0.0869 -1.46,-0.30311 -2.00991,-0.48054 -1.44827,-0.46729 -2.2521,-0.40143 -3.04095,0.24914 -0.38129,0.31445 -0.8356,0.57241 -1.00957,0.57324 -0.17398,9.2e-4 -0.63132,0.21105 -1.01632,0.46717 -1.03294,0.68713 -2.18631,1.13217 -2.93418,1.13217 -0.80824,0 -1.78626,0.40859 -2.50518,1.04661 -0.45926,0.40757 -0.57244,0.82312 -0.76203,2.798 -0.12246,1.27565 -0.326,2.58575 -0.4523,2.91134 -0.4636,1.19511 -0.27065,3.40003 0.45295,5.17597 0.76472,1.87684 1.07301,2.93311 0.85608,2.93311 -0.0799,0 -0.44943,-0.33367 -0.82121,-0.74148 l -0.67596,-0.74148 -0.24108,0.56996 c -0.1326,0.31348 -0.4687,1.3418 -0.74689,2.28516 -0.90153,3.05713 -0.95372,3.20169 -1.1559,3.20169 -0.38072,0 -0.50992,-0.96765 -0.25511,-1.91067 0.14089,-0.52139 0.35448,-1.92565 0.47465,-3.12057 0.12017,-1.19492 0.40573,-3.59219 0.63459,-5.32726 0.44491,-3.37311 0.37245,-3.86845 -0.58629,-4.00817 -0.60771,-0.0886 -2.3432,0.73205 -5.5963,2.64617 -1.33605,0.78613 -2.51074,1.42933 -2.61043,1.42933 -0.0997,0 -0.61039,0.33446 -1.13488,0.74325 -1.9178,1.49474 -2.26211,1.70654 -3.4072,2.09587 -0.64166,0.21816 -1.69166,0.48078 -2.33333,0.58359 -1.76226,0.28235 -3.80141,0.86519 -5.41948,1.549 -1.1957,0.50532 -1.51245,0.75717 -1.78981,1.42305 -0.18535,0.44498 -0.60783,1.16352 -0.93885,1.59674 -0.75344,0.98607 -0.75596,1.40019 -0.013,2.12841 0.53924,0.52851 0.79341,0.5846 3.01458,0.66518 1.94547,0.0706 2.5199,0.17157 2.90155,0.51009 0.26173,0.23215 0.82142,0.50562 1.24375,0.60773 0.55995,0.13536 0.19921,0.18252 -1.33211,0.17413 -4.47326,-0.0245 -4.4713,-0.0252 -3.95328,1.46485 0.48293,1.38914 1.93409,2.81147 3.38308,3.31587 1.2472,0.43416 1.33816,0.5454 0.80233,0.98125 -0.38143,0.31027 -1.42934,0.24868 -4.24086,-0.24927 l -1.67541,-0.29673 -1.06105,0.95859 c -0.58357,0.52723 -0.99803,0.95859 -0.92102,0.95859 0.077,0 0.009,0.15437 -0.15045,0.34304 -0.43658,0.51559 -0.77746,0.41729 -0.5948,-0.17152 0.62313,-2.00857 0.6312,-3.14453 0.0223,-3.14453 -0.15869,0 -0.48856,-0.21861 -0.73303,-0.48581 -0.59476,-0.65005 -4.89127,-3.82755 -5.53458,-4.09313 -0.28046,-0.11578 -1.99747,-0.30219 -3.81558,-0.41424 -2.84879,-0.17557 -3.39451,-0.27223 -3.94852,-0.69935 -0.90887,-0.70069 -2.46615,-1.33822 -3.7668,-1.54207 -0.61179,-0.0959 -1.16486,-0.16308 -1.22902,-0.14932 -0.0642,0.0138 -1.48167,0.13998 -3.15,0.28048 -4.199051,0.35363 -7.978361,-0.0197 -9.346761,-0.92316 -0.52071,-0.34382 -1.08482,-0.78817 -1.25357,-0.98746 -0.17791,-0.21013 -0.66628,-0.36234 -1.16254,-0.36234 -0.47066,0 -1.45109,-0.15198 -2.17874,-0.33774 -0.72764,-0.18576 -2.56095,-0.45182 -4.07402,-0.59125 -1.51307,-0.13942 -4.01103,-0.45052 -5.55103,-0.69133 -3.99274,-0.62433 -4.06696,-0.61646 -5.03917,0.53403 -0.45173,0.53457 -1.16151,1.46078 -1.57729,2.05824 -0.41578,0.59746 -0.85851,1.08629 -0.98386,1.08629 -0.12534,0 -0.32872,0.25991 -0.45195,0.57759 -0.12323,0.31768 -0.38253,0.63719 -0.57622,0.71004 -0.19369,0.0729 -0.29998,0.2152 -0.23621,0.31633 0.0638,0.10114 -0.19464,0.44003 -0.57424,0.7531 -0.37961,0.31307 -0.75885,0.83731 -0.84276,1.16498 -0.0839,0.32768 -0.45611,0.84611 -0.8271,1.15207 -0.37094,0.30557 -0.67448,0.65962 -0.67448,0.78639 0,0.12677 -0.18375,0.36653 -0.40833,0.5328 -0.22459,0.16628 -0.51334,0.46545 -0.64167,0.66484 -1.0865,1.68805 -1.6506,2.33761 -2.47074,2.84505 -1.03607,0.64103 -2.38128,0.78375 -3.22348,0.34198 -0.86343,-0.45291 -3.85404,-1.61101 -4.16232,-1.61184 -0.32019,-9.1e-4 -1.52751,1.23688 -1.4617,1.49855 0.0228,0.0906 -0.0463,0.22768 -0.1535,0.30464 -0.10721,0.0769 -0.37143,0.44865 -0.58716,0.82599 -0.34415,0.60198 -0.53722,0.69455 -1.575,0.7552 -0.68971,0.0403 -1.18277,-0.0275 -1.18277,-0.16261 z m -8.36066,-40.19132 c 0.24384,-0.21628 0.48356,-0.86255 0.5716,-1.54096 0.12968,-0.99928 0.30351,-1.3089 1.20059,-2.13844 0.82553,-0.76338 0.99263,-1.03648 0.78453,-1.28224 -0.14871,-0.17561 -0.20266,-0.6149 -0.1233,-1.00382 0.0937,-0.45915 0.009,-0.88903 -0.2517,-1.27915 -0.21605,-0.32317 -0.54859,-1.3253 -0.739,-2.22695 -0.36997,-1.75197 -1.19244,-3.66844 -1.63498,-3.8097 -0.64311,-0.20529 -1.23116,3.26898 -0.92743,5.47933 0.17353,1.26274 0.12185,1.96381 -0.28737,3.8989 -0.27442,1.29762 -0.49894,2.85601 -0.49894,3.46307 v 1.10376 l 0.74302,-0.14565 c 0.40866,-0.0801 0.932,-0.31328 1.16298,-0.51815 z m 0.0309,-87.268555 c 0.5403,-1.128694 0.71165,-1.712362 0.53671,-1.828229 -0.32912,-0.217983 -3.49651,-0.172594 -3.87306,0.0555 -0.44095,0.267104 1.71475,3.430752 2.3377,3.430752 0.11273,0 0.56213,-0.74611 0.99865,-1.658023 z"
       id="path248" /></g></svg>
